<svg version="1.2" xmlns="http://www.w3.org/2000/svg" viewBox="0 0 558 264" width="200" height="95">
	<title>kmdnlogo</title>
	<style>
		.s0 { fill: #ffffff } 
	</style>
	<g id="logo1">
		<g id="candle">
			<path id="wicks_top" class="s0" d="m29.7 20.8h3.3v32.5h-3.3z"/>
			<path id="body" class="s0" d="m23.2 48.5h16.3v76.4h-16.3z"/>
			<path id="wicks_bottom" class="s0" d="m29.7 116.8h3.3v32.6h-3.3z"/>
		</g>
		<path id="Kmdn" class="s0" aria-label="Kmdn"  d="m82.5 44.8h17.7l-32.1 39.1 32.1 41.1h-17.7l-32-41.1zm32.9 0l40.1 31.6 40.1-31.6v80.2h-13.3v-52.7l-26.8 21.2-26.7-21.2v52.7h-13.4zm102.5 80.3v-80.2h26.7q8.3 0.2 15.6 3.5 7.3 3.2 12.7 8.7 5.5 5.4 8.5 12.7 3.1 7.2 3.1 15.2 0 8.3-3.3 15.7-3.3 7.3-8.8 12.7-5.6 5.4-12.9 8.5-7.1 3.1-14.9 3.2zm13.4-13.5h14.9q5.2 0.2 9.7-2 4.6-2.3 8-6 3.5-3.9 5.4-8.7 2-4.9 2-9.9 0-5-2-9.8-1.9-5-5.4-8.7-3.3-3.7-7.9-6-4.6-2.2-9.8-2.1h-14.9zm125.2-17v-49.8h13.3v80.2l-53.6-49.8v49.8h-13.4v-80.2z"/>
		<path id="trading." class="s0" aria-label="trading."  d="m54.9 238h-7.9v-72.4h-28.7v-7.8h65.2v7.8h-28.6zm40.5 0v-80.3h43.1q5.6 0.2 9.9 2.6 1.8 0.9 3.6 2.5 1.8 1.6 3.2 4 1.4 2.2 2.3 5.4 0.8 3.1 0.8 7.3 0 4-0.8 7.1-0.9 2.9-2.3 5.3-1.4 2.2-3.2 3.9-1.8 1.7-3.6 2.7-4.3 2.7-9.9 3.3l19.5 36.2h-9l-19.3-36.2h-26.4v36.2zm7.9-72.5v28.5h34q1.7 0 3.9-0.7 2.4-0.9 4.4-2.6 2.1-1.8 3.5-4.6 1.5-2.8 1.5-6.6 0-4-1.3-6.6-1.2-2.7-3.2-4.3-1.9-1.7-4.2-2.3-2.4-0.8-4.6-0.8zm139.2 72.5l-9.5-19.3h-41l-9.6 19.3h-8.6l38.7-80.2 38.7 80.2zm-47-26.9h33.7l-16.8-34.6zm96.6 26.8h-25.9v-80.2h25.9q8.4 0 15.6 3.3 7.3 3.3 12.6 8.9 5.5 5.4 8.5 12.7 3.1 7.2 3.1 15.2 0 8.2-3.3 15.6-3.2 7.2-8.8 12.7-5.4 5.4-12.7 8.6-7.2 3.2-15 3.2zm-18-72.4v64.6h18.9q6.5 0 12.2-2.7 5.6-2.8 9.8-7.3 4.2-4.5 6.5-10.3 2.5-5.9 2.5-11.9 0-6.6-2.6-12.4-2.6-6-6.9-10.4-4.3-4.4-9.9-6.9-5.5-2.7-11.6-2.7zm76.1-7.8h7.9v80.2h-7.9zm38 80.3h-7.9v-80.3l58.6 60.8v-60.8h7.9v80.3l-58.6-60.8zm117 0q-8.2 0-15.6-3.2-7.3-3.2-12.8-8.7-5.5-5.4-8.7-12.7-3.2-7.3-3.2-15.5 0-8.3 3.2-15.6 3.2-7.4 8.7-12.8 5.4-5.5 12.7-8.6 7.4-3.2 15.7-3.2 15.9 0 27.7 10.9l-6.4 5.1q-4.5-4-9.7-6-5.3-2.2-11.6-2.2-6.6 0-12.5 2.7-5.9 2.6-10.2 6.9-4.4 4.4-7.1 10.4-2.6 5.9-2.6 12.4 0 6.5 2.6 12.4 2.7 5.8 7.1 10.3 4.4 4.3 10.3 7 5.9 2.6 12.4 2.6 5.5 0 10.2-1.6 4.7-1.7 8.8-4.8l1.4-1.1v-18.1h-17.2l-0.1-7.8h25.2v29.5q-1.1 1.1-3.8 3.1-2.6 2-6.3 3.9-3.7 1.9-8.4 3.3-4.5 1.4-9.8 1.4zm37.1 0v-7.3h7.9v7.3z"/>
	</g>
</svg>